<svg xmlns="http://www.w3.org/2000/svg" viewBox="0 0 512 512" role="img" aria-label="Gasolinera">
  <defs>
    <linearGradient id="bg" x1="64" y1="32" x2="448" y2="480" gradientUnits="userSpaceOnUse">
      <stop stop-color="#14b8a6"/>
      <stop offset="1" stop-color="#0f766e"/>
    </linearGradient>
    <linearGradient id="pump" x1="158" y1="112" x2="334" y2="396" gradientUnits="userSpaceOnUse">
      <stop stop-color="#ffffff"/>
      <stop offset="1" stop-color="#ccfbf1"/>
    </linearGradient>
  </defs>
  <rect width="512" height="512" rx="116" fill="url(#bg)"/>
  <path d="M348 166l42 42v118c0 32 48 32 48 0v-86c0-18-7-35-20-48l-54-54" fill="none" stroke="#ecfeff" stroke-width="28" stroke-linecap="round" stroke-linejoin="round"/>
  <path d="M150 134c0-22 18-40 40-40h104c22 0 40 18 40 40v246h28c16 0 28 12 28 28v18H110v-18c0-16 12-28 28-28h12V134z" fill="url(#pump)"/>
  <rect x="184" y="132" width="116" height="92" rx="16" fill="#0f766e" opacity=".95"/>
  <path d="M202 278h80" stroke="#0f766e" stroke-width="24" stroke-linecap="round"/>
  <path d="M202 326h54" stroke="#0f766e" stroke-width="24" stroke-linecap="round" opacity=".72"/>
  <circle cx="332" cy="406" r="18" fill="#f59e0b"/>
</svg>
